<?xml version="1.0" encoding="UTF-8"?>
<!-- Generator: visioncortex VTracer 0.6.12 -->
<svg version="1.1" xmlns="http://www.w3.org/2000/svg" width="1254" height="1254">
<path d="M0,0 L1254,0 L1254,1254 L0,1254 Z M626,218 L620,222 L600,242 L592,249 L430,411 L425,416 L410,432 L352,490 L345,498 L331,512 L327,521 L327,999 L330,1006 L335,1009 L644,1009 L649,1006 L652,1002 L653,998 L653,765 L762,765 L769,762 L772,758 L773,755 L773,714 L770,707 L765,704 L653,703 L653,576 L654,573 L656,572 L878,571 L877,822 L877,1002 L882,1008 L885,1009 L929,1009 L934,1006 L937,1002 L937,518 L933,510 L823,400 L815,393 L810,387 L802,380 L693,271 L688,266 L663,241 L655,234 L641,220 L637,218 Z " fill="#000000" transform="translate(0,0)"/>
<path d="M0,0 L4,1 L69,66 L77,73 L126,122 L134,129 L215,210 L214,213 L-60,213 L-206,212 L-206,208 L-195,197 L-188,189 L-180,181 L-173,173 L-163,163 L-156,155 L-136,135 L-134,135 L-132,131 L-125,125 L-120,120 L-115,114 L-107,107 L-62,62 L-56,55 L-51,50 L-11,10 L-3,3 Z " fill="#000000" transform="translate(630,297)"/>
<path d="M0,0 L196,0 L200,3 L201,80 L201,129 L200,132 L198,133 L84,134 L79,137 L77,140 L77,186 L79,190 L86,193 L197,193 L200,194 L201,196 L201,377 L200,378 L-1,378 L-2,377 L-2,2 Z " fill="#000000" transform="translate(390,571)"/>
</svg>
